<mxfile host="app.diagrams.net" modified="2022-04-24T08:04:06.799Z" agent="5.0 (Windows NT 10.0; Win64; x64) AppleWebKit/537.36 (KHTML, like Gecko) Chrome/97.0.4692.99 Safari/537.36" etag="qShNsfUBJpcYszMyeiPa" version="17.2.4" type="github">
  <diagram id="XIVhOQmD-KmsW_-3YriL" name="第 1 页">
    <mxGraphModel dx="1662" dy="762" grid="1" gridSize="10" guides="1" tooltips="1" connect="1" arrows="1" fold="1" page="1" pageScale="1" pageWidth="827" pageHeight="1169" math="0" shadow="0">
      <root>
        <mxCell id="0" />
        <mxCell id="1" parent="0" />
        <mxCell id="vw67uIbvKOVQI48Srrb4-1" value="" style="endArrow=none;html=1;rounded=0;startArrow=none;" edge="1" parent="1" source="vw67uIbvKOVQI48Srrb4-8">
          <mxGeometry width="50" height="50" relative="1" as="geometry">
            <mxPoint x="260" y="550" as="sourcePoint" />
            <mxPoint x="260" y="90" as="targetPoint" />
          </mxGeometry>
        </mxCell>
        <mxCell id="vw67uIbvKOVQI48Srrb4-2" value="" style="endArrow=none;html=1;rounded=0;startArrow=none;" edge="1" parent="1" source="vw67uIbvKOVQI48Srrb4-5">
          <mxGeometry width="50" height="50" relative="1" as="geometry">
            <mxPoint x="570" y="550" as="sourcePoint" />
            <mxPoint x="570" y="90" as="targetPoint" />
          </mxGeometry>
        </mxCell>
        <mxCell id="vw67uIbvKOVQI48Srrb4-15" style="rounded=0;orthogonalLoop=1;jettySize=auto;html=1;exitX=1;exitY=0.25;exitDx=0;exitDy=0;entryX=0;entryY=0.5;entryDx=0;entryDy=0;" edge="1" parent="1" source="vw67uIbvKOVQI48Srrb4-5" target="vw67uIbvKOVQI48Srrb4-7">
          <mxGeometry relative="1" as="geometry" />
        </mxCell>
        <mxCell id="vw67uIbvKOVQI48Srrb4-16" style="edgeStyle=none;rounded=0;orthogonalLoop=1;jettySize=auto;html=1;exitX=1;exitY=0.75;exitDx=0;exitDy=0;entryX=-0.04;entryY=0.438;entryDx=0;entryDy=0;entryPerimeter=0;" edge="1" parent="1" source="vw67uIbvKOVQI48Srrb4-5" target="vw67uIbvKOVQI48Srrb4-14">
          <mxGeometry relative="1" as="geometry" />
        </mxCell>
        <mxCell id="vw67uIbvKOVQI48Srrb4-5" value="" style="rounded=0;whiteSpace=wrap;html=1;" vertex="1" parent="1">
          <mxGeometry x="550" y="180" width="40" height="180" as="geometry" />
        </mxCell>
        <mxCell id="vw67uIbvKOVQI48Srrb4-6" value="" style="endArrow=none;html=1;rounded=0;" edge="1" parent="1" target="vw67uIbvKOVQI48Srrb4-5">
          <mxGeometry width="50" height="50" relative="1" as="geometry">
            <mxPoint x="570" y="550" as="sourcePoint" />
            <mxPoint x="570" y="90" as="targetPoint" />
          </mxGeometry>
        </mxCell>
        <mxCell id="vw67uIbvKOVQI48Srrb4-7" value="" style="image;html=1;image=img/lib/clip_art/computers/Server_Rack_Empty_128x128.png" vertex="1" parent="1">
          <mxGeometry x="740" y="90" width="50" height="160" as="geometry" />
        </mxCell>
        <mxCell id="vw67uIbvKOVQI48Srrb4-17" style="edgeStyle=none;rounded=0;orthogonalLoop=1;jettySize=auto;html=1;exitX=1;exitY=0.5;exitDx=0;exitDy=0;entryX=0;entryY=0.5;entryDx=0;entryDy=0;" edge="1" parent="1" source="vw67uIbvKOVQI48Srrb4-8" target="vw67uIbvKOVQI48Srrb4-5">
          <mxGeometry relative="1" as="geometry" />
        </mxCell>
        <mxCell id="vw67uIbvKOVQI48Srrb4-8" value="" style="rounded=0;whiteSpace=wrap;html=1;" vertex="1" parent="1">
          <mxGeometry x="240" y="180" width="40" height="180" as="geometry" />
        </mxCell>
        <mxCell id="vw67uIbvKOVQI48Srrb4-9" value="" style="endArrow=none;html=1;rounded=0;" edge="1" parent="1" target="vw67uIbvKOVQI48Srrb4-8">
          <mxGeometry width="50" height="50" relative="1" as="geometry">
            <mxPoint x="260" y="550" as="sourcePoint" />
            <mxPoint x="260" y="90" as="targetPoint" />
          </mxGeometry>
        </mxCell>
        <mxCell id="vw67uIbvKOVQI48Srrb4-20" style="edgeStyle=none;rounded=0;orthogonalLoop=1;jettySize=auto;html=1;exitX=1;exitY=0.5;exitDx=0;exitDy=0;exitPerimeter=0;entryX=-0.075;entryY=0.144;entryDx=0;entryDy=0;entryPerimeter=0;" edge="1" parent="1" source="vw67uIbvKOVQI48Srrb4-11" target="vw67uIbvKOVQI48Srrb4-8">
          <mxGeometry relative="1" as="geometry" />
        </mxCell>
        <mxCell id="vw67uIbvKOVQI48Srrb4-11" value="" style="verticalLabelPosition=bottom;html=1;verticalAlign=top;align=center;strokeColor=none;fillColor=#00BEF2;shape=mxgraph.azure.mobile_services;pointerEvents=1;" vertex="1" parent="1">
          <mxGeometry x="80" y="180" width="32.5" height="50" as="geometry" />
        </mxCell>
        <mxCell id="vw67uIbvKOVQI48Srrb4-14" value="" style="image;html=1;image=img/lib/clip_art/computers/Server_Rack_Empty_128x128.png" vertex="1" parent="1">
          <mxGeometry x="740" y="280" width="50" height="160" as="geometry" />
        </mxCell>
        <mxCell id="vw67uIbvKOVQI48Srrb4-24" style="edgeStyle=none;rounded=0;orthogonalLoop=1;jettySize=auto;html=1;exitX=1;exitY=0.5;exitDx=0;exitDy=0;exitPerimeter=0;entryX=0;entryY=0.75;entryDx=0;entryDy=0;" edge="1" parent="1" source="vw67uIbvKOVQI48Srrb4-23" target="vw67uIbvKOVQI48Srrb4-8">
          <mxGeometry relative="1" as="geometry" />
        </mxCell>
        <mxCell id="vw67uIbvKOVQI48Srrb4-23" value="" style="verticalLabelPosition=bottom;html=1;verticalAlign=top;align=center;strokeColor=none;fillColor=#00BEF2;shape=mxgraph.azure.mobile_services;pointerEvents=1;" vertex="1" parent="1">
          <mxGeometry x="80" y="290" width="32.5" height="50" as="geometry" />
        </mxCell>
      </root>
    </mxGraphModel>
  </diagram>
</mxfile>
